<?xml version="1.0" encoding="UTF-8"?>
<!DOCTYPE svg PUBLIC "-//W3C//DTD SVG 1.1//EN"
		"http://www.w3.org/Graphics/SVG/1.1/DTD/svg11.dtd">
<svg version="1.1" id="Layer_1"
		xmlns="http://www.w3.org/2000/svg" xmlns:xlink="http://www.w3.org/1999/xlink" x="0px" y="0px"
		width="1700px" height="891.3280776228px" viewBox="0 0 369.8 172"
		style="enable-background:new 0 0 329.8 152;" xml:space="preserve"><style type="text/css">
	.st0{fill-rule:evenodd;clip-rule:evenodd;fill:#FC86F6;}
	.st1{fill-rule:evenodd;clip-rule:evenodd;fill:#ED14CE;}
	.st2{fill-rule:evenodd;clip-rule:evenodd;fill:#16151C;}
	.st3{fill-rule:evenodd;clip-rule:evenodd;fill:#D30000;}
	.st4{fill-rule:evenodd;clip-rule:evenodd;fill:#FF0000;}
	.st5{fill-rule:evenodd;clip-rule:evenodd;fill:#22222B;}
	.st6{fill-rule:evenodd;clip-rule:evenodd;fill:#FF7F00;}
	.st7{fill-rule:evenodd;clip-rule:evenodd;fill:#E05000;}
	.st8{fill-rule:evenodd;clip-rule:evenodd;fill:#0E0A5B;}
	.st9{fill-rule:evenodd;clip-rule:evenodd;fill:#EFD306;}
	.st10{fill-rule:evenodd;clip-rule:evenodd;fill:#EDAB07;}
	.st11{fill-rule:evenodd;clip-rule:evenodd;fill:#29333F;}
	.st12{fill-rule:evenodd;clip-rule:evenodd;fill:#D0E038;}
	.st13{fill-rule:evenodd;clip-rule:evenodd;fill:#90960C;}
	.st14{fill-rule:evenodd;clip-rule:evenodd;fill:#302714;}
	.st15{fill-rule:evenodd;clip-rule:evenodd;fill:#7FE51C;}
	.st16{fill-rule:evenodd;clip-rule:evenodd;fill:#50BC17;}
	.st17{fill-rule:evenodd;clip-rule:evenodd;fill:#182954;}
	.st18{fill-rule:evenodd;clip-rule:evenodd;fill:#16D3D3;}
	.st19{fill-rule:evenodd;clip-rule:evenodd;fill:#11898E;}
	.st20{fill-rule:evenodd;clip-rule:evenodd;fill:#283B55;}
	.st21{fill-rule:evenodd;clip-rule:evenodd;fill:#00DBFF;}
	.st22{fill-rule:evenodd;clip-rule:evenodd;fill:#36A9E1;}
	.st23{fill-rule:evenodd;clip-rule:evenodd;fill:#212F44;}
	.st24{fill-rule:evenodd;clip-rule:evenodd;fill:#6666FF;}
	.st25{fill-rule:evenodd;clip-rule:evenodd;fill:#3A34B7;}
	.st26{fill-rule:evenodd;clip-rule:evenodd;fill:#181733;}
</style><style type='text/css'>.title{fill:#1b2b42;}.slogan{fill:#1b2b42;}</style><g transform="scale(1.2434285714286) translate(85.564246323529,0)"><g>
	<path class="st21" d="M70.2,51.1c-2.3,16.7,15.3,22.9,30.3,20.7c-7.4,2.1-13.1,2.5-19.9,1.7C68.6,72.2,61.1,60.9,70.2,51.1z"/>
	<g>
		<path class="st22" d="M19.7,58.7c14.7,9.3,36.8,17,52.4,15.9c-14.4-9.8-8.3-22.4-2.1-25.2C57.5,46.4,49.8,51.7,43.8,62
			C37.9,62.5,31,62,19.7,58.7z"/>
		<path class="st22" d="M48,34.5c12.4-7.3,25.7-14.1,41.6-15.1c17.4,1-10,18.8-9.2,43c-0.7-10.7,1.4-25.2,7.2-40.3
			C75.5,21.3,60.3,28.9,48,35.1V34.5z"/>
		<polygon class="st22" points="25.6,26.7 31.7,21.9 31.7,17.1 26.6,17.1 24.5,19.3 25.6,19.3 		"/>
		<polygon class="st22" points="38.1,16.8 38.1,11.8 43.5,7.8 43.5,0 49.1,0 49.1,5.2 54.5,5.2 54.5,7.1 46.8,7.1 46.8,10.3 		"/>
		<path class="st22" d="M19.7,56.1c6.7-4.6,40.8-24.6,59.1-26.6c-0.7,1.5-1.5,3.4-2,5.1c-16.2,2-45.3,17.6-53.9,22.3L19.7,56.1z
			 M25,57.3c8.1-4.8,36.1-18.1,49.9-19.6c-0.6,1.2-1.3,2.8-1.7,4.2C61,43.5,37,53.9,28.1,58.1L25,57.3z"/>
	</g>
	<g>
		<path class="st23" d="M0,46.4c8.1,13.1,17.9,25,45.1,32.9c-14.3,0.3-26.4-3.6-41.4-13.3c26.6,31.2,69.6,23.7,100.7,6.4
			C62.9,84.4,23.9,70.8,0,46.4z"/>
		<path class="st23" d="M82.3,68.3c4.7-0.6,8.1-3.4,9.7-8.9c0.5,3.7,0.4,7.3-0.5,10.9C88.1,70.3,85.1,69.5,82.3,68.3z"/>
		<path class="st23" d="M93.8,68.7c0.3-2.3,0.3-4.5-0.4-6.3c1.6,0.1,3-0.6,4.3-2C97.8,64.4,96.3,67,93.8,68.7z"/>
		<path class="st23" d="M41.7,26.7v2.7l5.6-3.7v-2.8L41.7,26.7z M40,30.4L36.2,33v-2.5l3.8-2.6V30.4z M47.2,15.9L25,32.5v2
			l22.2-15.8V15.9z M34.6,34.1l-3.8,2.5v-2.4l3.8-2.6V34.1z M29.2,37.7L25.7,40v-2.3l3.5-2.4V37.7z M24.1,41.1l-2.9,2v-2.2l2.9-2
			V41.1z M19.6,44.1L16.7,46v-2.1l2.9-2V44.1z M15.1,45.1L12.3,47v2l2.8-1.8V45.1z M9.3,51.1v-4.9L7.8,45l10-7.1v-6.4h1.7v2.8
			l6.4-6.5l22.5-16.9V8.7c7.4-0.4,15-0.2,22,0.5v1.8c-5.9-0.4-11.9-0.4-18,0v0.8c6.7-0.4,13.2-0.3,19.7,0.4v2.1
			c-5.6,1.8-10.5,4.1-15.1,6.6c24.5-9.1,40.6-10,42,0c-9-8.2-26.6-2.3-46.6,9C40.4,36.7,27.3,45.2,15,53.7L9.3,51.1z"/>
	</g>
</g>
</g><g transform="scale(0.0255) translate(250.98039215686, 5372.5490196078)"><path transform="translate(0,0) rotate(180) scale(-1, 1)" d="M352.45 713l14.0898 -0.00292969c64.7197 0 128.72 -17.4502 156.09 -32.0898c7.26953 -3.62988 12.5498 -8.26953 12.5498 -20.6299v-106.28c0 -7.91016 -7.91016 -13 -15.6406 -9.54004c-48.2695 20.9102 -82 33.2705 -136.82 33.2705h-4.71973 c-98.6396 0 -166.64 -67.8203 -166.64 -183.09v-89.2803c0 -115.27 68 -183.09 166.64 -183.09h4.71973c57.2803 0 95.1006 14.8203 136.82 33.2705c7.73047 3.45996 15.6406 -1.62988 15.6406 -9.54004v-107.09c0 -9.91016 -3.63965 -15.3701 -12.5498 -20.6396 c-25.7197 -14.6396 -93.8096 -31.2695 -156.09 -31.2695h-14.0898c-155.82 0 -301.09 110.36 -301.09 318.091v89.8203c0 207.72 145.27 318.09 301.09 318.09z" class='title'/><path transform="translate(565,0) rotate(180) scale(-1, 1)" d="M266.18 513h11c124.54 0 233 -80.46 233 -226v-74c0 -145.55 -108.46 -226 -233 -226h-11c-124.55 0 -233 80.4502 -233 226v74c0 145.54 108.45 226 233 226zM274.54 394.09h-5.71973c-50.1797 0 -83.8193 -34 -83.8193 -100.37v-87.4502 c0 -66.3701 33.6396 -100.37 83.8193 -100.37h5.71973c50.1797 0 83.8193 34 83.8193 100.37v87.4502c0 66.3701 -33.6396 100.37 -83.8193 100.37z" class='title'/><path transform="translate(1108,0) rotate(180) scale(-1, 1)" d="M324.82 513l11.3701 -0.000976562c93.3604 0 155.91 -58.3701 155.91 -161.82v-338c0 -7.91016 -5.28027 -13.1904 -13.1904 -13.1904h-122.18c-7.91016 0 -13.1797 5.28027 -13.1797 13.1904v305.45c0 51.2803 -19.6396 75.46 -67.2695 75.46h-4.45996 c-25.6201 0 -56.1699 -11.5596 -84.1797 -29.79v-351.12c0 -7.91016 -5.28027 -13.1904 -13.1904 -13.1904h-122.18c-7.91016 0 -13.1797 5.28027 -13.1797 13.1904v473.63c0 7.91016 5.26953 13.1904 13.1797 13.1904h107.46c6.26953 0 10.7295 -3.63965 12.3594 -9.90918 l8.00977 -42.0098c52.2998 45.3496 97.5996 64.9199 144.72 64.9199z" class='title'/><path transform="translate(1637,0) rotate(180) scale(-1, 1)" d="M266.18 513h11c47.54 0 105.271 -18.1797 135.36 -32.8193c7.26953 -2.82031 10.9092 -8.27051 10.9092 -18.1807v-91.5498c0 -7.91016 -6.28027 -12.1797 -13.1904 -9.5498c-47.7197 20.9102 -79.2695 33.1904 -111.18 33.1904h-5.71973 c-61.46 0 -108.37 -39.7305 -108.37 -120.82v-46.54c0 -81.0898 46.9102 -120.82 108.37 -120.82h5.71973c31.9102 0 63.46 12.2803 111.18 33.1904c6.91016 2.62988 13.1904 -1.63965 13.1904 -9.5498v-91.5498c0 -9.91016 -3.63965 -15.3604 -10.9092 -18.1807 c-30.0898 -14.6396 -87.8203 -32.8193 -135.36 -32.8193h-11c-123.55 0 -233 77.1797 -233 236.64v52.7197c0 159.46 109.45 236.64 233 236.64z" class='title'/><path transform="translate(2092,0) rotate(180) scale(-1, 1)" d="M266.18 513h11c124.54 0 233 -80.46 233 -226v-74c0 -145.55 -108.46 -226 -233 -226h-11c-124.55 0 -233 80.4502 -233 226v74c0 145.54 108.45 226 233 226zM274.54 394.09h-5.71973c-50.1797 0 -83.8193 -34 -83.8193 -100.37v-87.4502 c0 -66.3701 33.6396 -100.37 83.8193 -100.37h5.71973c50.1797 0 83.8193 34 83.8193 100.37v87.4502c0 66.3701 -33.6396 100.37 -83.8193 100.37z" class='title'/><path transform="translate(2635,0) rotate(180) scale(-1, 1)" d="M318.72 513h3.99902c9 0 17.46 -1 22.6396 -2c6 -1 9.4502 -6.45996 9.4502 -12.2803v-112.45c0 -9.73047 -7.08984 -14.8203 -16.3594 -13.8203c-7.63965 1 -26.3594 2 -37.999 2h-6.91016c-33.2998 0 -75.2803 -11.8301 -105.91 -33.4902v-327.78 c0 -7.91016 -5.26953 -13.1904 -13.1797 -13.1904h-122.18c-7.91016 0 -13.1904 5.28027 -13.1904 13.1904v473.63c0 7.91016 5.28027 13.1904 13.1904 13.1904h107.45c6.28027 0 10.7305 -3.63965 12.3701 -9.90918l10.6299 -55.0596 c36.6396 50.0195 88.6895 77.9697 135.999 77.9697z" class='title'/><path transform="translate(3003,0) rotate(180) scale(-1, 1)" d="M361.91 737l122.178 0.000976562c7.91016 0 13.1797 -5.28027 13.1797 -13.1904v-710.63c0 -7.91016 -5.26953 -13.1904 -13.1797 -13.1904h-107.46c-6.26953 0 -10.7295 3.63965 -12.3594 9.90918l-6.13965 36.1299c-30.9404 -33.7402 -77.6201 -59.04 -133.68 -59.04 h-9.71973c-122 0 -181.55 96 -181.55 215.37v84.6299c0 145.55 84.9102 226 197.09 226h9.73047c40.1797 0 78.3896 -12.0498 108.72 -39.1895v250.01c0 7.91016 5.28027 13.1904 13.1904 13.1904zM265.998 394.091h-4.4502c-50.0898 0 -76.5498 -34 -76.5498 -100.37 v-87.4502c0 -66.3701 26.46 -100.37 76.5498 -100.37h4.4502c25.1904 0 54.3809 10.1797 82.7305 31.5195v223.48c-29.3701 22.3701 -59.9102 33.1904 -82.7305 33.1904z" class='title'/><path transform="translate(3754,0) rotate(180) scale(-1, 1)" d="M363.82 713l14.0674 -0.000976562c66.3604 0 131.181 -19.0898 156.091 -32.9102c7.26953 -3.62988 12.5498 -8.26953 12.5498 -20.6299v-105.46c0 -7.08984 -6.28027 -13 -15.6406 -9.54004c-62.1797 25 -83.6396 33.2695 -136.819 33.2695h-4.71973 c-103.28 0 -178 -67.8203 -178 -183.09v-89.2803c0 -115.27 53.4502 -183.09 156.73 -183.09h4.71973c16.1299 0 36.5303 3.87988 49.7305 9.25977v213.92c0 7.91016 5.28027 13.1797 13.1904 13.1797h126.27c7.91016 0 13.1904 -5.26953 13.1904 -13.1797v-277.09 c0 -11.5498 -3.63965 -20.2695 -11.7295 -26.3594c-28.1797 -22 -115.09 -55.8203 -192.09 -55h-14.0898c-160.45 0 -306.271 110.36 -305.91 318.091v89.8203c0 207.72 152 318.09 312.46 318.09z" class='title'/><path transform="translate(4386,0) rotate(180) scale(-1, 1)" d="M318.72 513h3.99902c9 0 17.46 -1 22.6396 -2c6 -1 9.4502 -6.45996 9.4502 -12.2803v-112.45c0 -9.73047 -7.08984 -14.8203 -16.3594 -13.8203c-7.63965 1 -26.3594 2 -37.999 2h-6.91016c-33.2998 0 -75.2803 -11.8301 -105.91 -33.4902v-327.78 c0 -7.91016 -5.26953 -13.1904 -13.1797 -13.1904h-122.18c-7.91016 0 -13.1904 5.28027 -13.1904 13.1904v473.63c0 7.91016 5.28027 13.1904 13.1904 13.1904h107.45c6.28027 0 10.7305 -3.63965 12.3701 -9.90918l10.6299 -55.0596 c36.6396 50.0195 88.6895 77.9697 135.999 77.9697z" class='title'/><path transform="translate(4754,0) rotate(180) scale(-1, 1)" d="M255.27 513h4.36328c105.22 0 193.66 -39.8604 195.37 -190.271v-309.55c0 -7.91016 -5.28027 -13.1797 -13.1904 -13.1797h-107.45c-6.28027 -0 -10.7305 3.62988 -12.3701 9.91016l-8.01953 43.3496c-29.6904 -29.0898 -81.9707 -66.2598 -143.251 -66.2598h-5.17969 c-94.9102 0 -141.91 67.9102 -141.91 142.18v10.5498c0 98.54 64.0898 151.271 211.91 161.99l70.7695 4.9502l0.139648 10.5098c0 61.6299 -25.0898 79.3604 -81.3594 79.3604h-2.36035c-43.3701 0 -92.5498 -15.5498 -146.91 -30.7295 c-6.91016 -1.82031 -13.1904 1.63965 -13.1904 9.5498v89.0898c0 9.91016 3.63965 16.1797 10.9092 18.1797c44.9102 13.8203 112.09 30.3701 181.729 30.3701zM306.453 220.09l-50.7314 -0.821289c-57.7197 -0.910156 -82.7197 -23.6299 -82.7197 -60.7197v-3.37012 c0 -32.7197 22.9102 -55 57.3604 -55h4.82031c24.21 0 45.6201 10.1504 71.2705 32.8008v87.1104z" class='title'/><path transform="translate(5246,0) rotate(180) scale(-1, 1)" d="M54.4502 706.64h124.37c8.08984 0 13.3594 -5.28027 13.3594 -13.3701v-112.63c0 -8.08984 -5.26953 -13.3701 -13.3594 -13.3701h-124.37c-8.08984 0 -13.3594 5.28027 -13.3594 13.3701v112.63c0 8.08984 5.26953 13.3701 13.3594 13.3701zM55.54 500h122.18 c7.91016 0 13.1904 -5.28027 13.1904 -13.1904v-473.63c0 -7.91016 -5.28027 -13.1904 -13.1904 -13.1904h-122.18c-7.91016 0 -13.1797 5.28027 -13.1797 13.1904v473.63c0 7.91016 5.26953 13.1904 13.1797 13.1904z" class='title'/><path transform="translate(5477,0) rotate(180) scale(-1, 1)" d="M324.82 513l11.3701 -0.000976562c93.3604 0 155.91 -58.3701 155.91 -161.82v-338c0 -7.91016 -5.28027 -13.1904 -13.1904 -13.1904h-122.18c-7.91016 0 -13.1797 5.28027 -13.1797 13.1904v305.45c0 51.2803 -19.6396 75.46 -67.2695 75.46h-4.45996 c-25.6201 0 -56.1699 -11.5596 -84.1797 -29.79v-351.12c0 -7.91016 -5.28027 -13.1904 -13.1904 -13.1904h-122.18c-7.91016 0 -13.1797 5.28027 -13.1797 13.1904v473.63c0 7.91016 5.26953 13.1904 13.1797 13.1904h107.46c6.26953 0 10.7295 -3.63965 12.3594 -9.90918 l8.00977 -42.0098c52.2998 45.3496 97.5996 64.9199 144.72 64.9199z" class='title'/><path transform="translate(6221,0) rotate(180) scale(-1, 1)" d="M36.8203 700h518.821c7.91016 0 13.1904 -5.28027 13.1904 -13.1904v-108.91c0 -7.91016 -5.28027 -13.1797 -13.1904 -13.1797h-181.45v-551.55c0 -7.91016 -5.28027 -13.1797 -13.1904 -13.1797h-129.54c-7.91016 0 -13.1904 5.26953 -13.1904 13.1797v551.55h-181.45 c-7.91016 0 -13.1904 5.26953 -13.1904 13.1797v108.91c0 7.91016 5.28027 13.1904 13.1904 13.1904z" class='title'/><path transform="translate(6813,0) rotate(180) scale(-1, 1)" d="M318.72 513h3.99902c9 0 17.46 -1 22.6396 -2c6 -1 9.4502 -6.45996 9.4502 -12.2803v-112.45c0 -9.73047 -7.08984 -14.8203 -16.3594 -13.8203c-7.63965 1 -26.3594 2 -37.999 2h-6.91016c-33.2998 0 -75.2803 -11.8301 -105.91 -33.4902v-327.78 c0 -7.91016 -5.26953 -13.1904 -13.1797 -13.1904h-122.18c-7.91016 0 -13.1904 5.28027 -13.1904 13.1904v473.63c0 7.91016 5.28027 13.1904 13.1904 13.1904h107.45c6.28027 0 10.7305 -3.63965 12.3701 -9.90918l10.6299 -55.0596 c36.6396 50.0195 88.6895 77.9697 135.999 77.9697z" class='title'/><path transform="translate(7181,0) rotate(180) scale(-1, 1)" d="M255.27 513h4.36328c105.22 0 193.66 -39.8604 195.37 -190.271v-309.55c0 -7.91016 -5.28027 -13.1797 -13.1904 -13.1797h-107.45c-6.28027 -0 -10.7305 3.62988 -12.3701 9.91016l-8.01953 43.3496c-29.6904 -29.0898 -81.9707 -66.2598 -143.251 -66.2598h-5.17969 c-94.9102 0 -141.91 67.9102 -141.91 142.18v10.5498c0 98.54 64.0898 151.271 211.91 161.99l70.7695 4.9502l0.139648 10.5098c0 61.6299 -25.0898 79.3604 -81.3594 79.3604h-2.36035c-43.3701 0 -92.5498 -15.5498 -146.91 -30.7295 c-6.91016 -1.82031 -13.1904 1.63965 -13.1904 9.5498v89.0898c0 9.91016 3.63965 16.1797 10.9092 18.1797c44.9102 13.8203 112.09 30.3701 181.729 30.3701zM306.453 220.09l-50.7314 -0.821289c-57.7197 -0.910156 -82.7197 -23.6299 -82.7197 -60.7197v-3.37012 c0 -32.7197 22.9102 -55 57.3604 -55h4.82031c24.21 0 45.6201 10.1504 71.2705 32.8008v87.1104z" class='title'/><path transform="translate(7673,0) rotate(180) scale(-1, 1)" d="M361.91 737l122.178 0.000976562c7.91016 0 13.1797 -5.28027 13.1797 -13.1904v-710.63c0 -7.91016 -5.26953 -13.1904 -13.1797 -13.1904h-107.46c-6.26953 0 -10.7295 3.63965 -12.3594 9.90918l-6.13965 36.1299c-30.9404 -33.7402 -77.6201 -59.04 -133.68 -59.04 h-9.71973c-122 0 -181.55 96 -181.55 215.37v84.6299c0 145.55 84.9102 226 197.09 226h9.73047c40.1797 0 78.3896 -12.0498 108.72 -39.1895v250.01c0 7.91016 5.28027 13.1904 13.1904 13.1904zM265.998 394.091h-4.4502c-50.0898 0 -76.5498 -34 -76.5498 -100.37 v-87.4502c0 -66.3701 26.46 -100.37 76.5498 -100.37h4.4502c25.1904 0 54.3809 10.1797 82.7305 31.5195v223.48c-29.3701 22.3701 -59.9102 33.1904 -82.7305 33.1904z" class='title'/><path transform="translate(8209,0) rotate(180) scale(-1, 1)" d="M54.4502 706.64h124.37c8.08984 0 13.3594 -5.28027 13.3594 -13.3701v-112.63c0 -8.08984 -5.26953 -13.3701 -13.3594 -13.3701h-124.37c-8.08984 0 -13.3594 5.28027 -13.3594 13.3701v112.63c0 8.08984 5.26953 13.3701 13.3594 13.3701zM55.54 500h122.18 c7.91016 0 13.1904 -5.28027 13.1904 -13.1904v-473.63c0 -7.91016 -5.28027 -13.1904 -13.1904 -13.1904h-122.18c-7.91016 0 -13.1797 5.28027 -13.1797 13.1904v473.63c0 7.91016 5.26953 13.1904 13.1797 13.1904z" class='title'/><path transform="translate(8440,0) rotate(180) scale(-1, 1)" d="M324.82 513l11.3701 -0.000976562c93.3604 0 155.91 -58.3701 155.91 -161.82v-338c0 -7.91016 -5.28027 -13.1904 -13.1904 -13.1904h-122.18c-7.91016 0 -13.1797 5.28027 -13.1797 13.1904v305.45c0 51.2803 -19.6396 75.46 -67.2695 75.46h-4.45996 c-25.6201 0 -56.1699 -11.5596 -84.1797 -29.79v-351.12c0 -7.91016 -5.28027 -13.1904 -13.1904 -13.1904h-122.18c-7.91016 0 -13.1797 5.28027 -13.1797 13.1904v473.63c0 7.91016 5.26953 13.1904 13.1797 13.1904h107.46c6.26953 0 10.7295 -3.63965 12.3594 -9.90918 l8.00977 -42.0098c52.2998 45.3496 97.5996 64.9199 144.72 64.9199z" class='title'/><path transform="translate(8969,0) rotate(180) scale(-1, 1)" d="M483.82 453.91c5.62988 -3.82031 9.26855 -10.2803 9.26855 -16.7402v-402.36c0 -154.73 -123.55 -214.82 -229.64 -214.82h-4.36035c-86 0 -132 15.7305 -175.28 28.7305c-7.26953 2 -10.9092 8.26953 -10.9092 18.1797v91.5498 c0 7.91016 6.28027 12.1797 13.1904 9.5498c45.3604 -17.6396 89.7305 -34 138 -34h4.82031c77.5498 0 115.64 28.3604 115.64 101.45v29.8398c-37.8701 -32.4697 -80.2002 -50.4795 -124.28 -50.4795h-9.71973c-120.37 0 -177.37 96 -177.37 215.37v56.8203 c0 145.54 85.8203 226 217.551 226h10.0898c88.1797 0 180.54 -32.6396 223 -59.0898zM257.359 133.721l4.45898 0.0107422c25.2695 0 54.1797 10 82.7197 31.54v206.46c-27.1797 14.7197 -58.4492 24.8096 -81.4492 24.8096h-4.82031 c-47.5498 0 -73.2695 -32.3604 -73.2695 -98.7305v-64.54c0 -66.3701 23.9102 -99.5498 72.3604 -99.5498z" class='title'/><path transform="translate(9716,0) rotate(180) scale(-1, 1)" d="M72.2695 700l424.45 0.0107422c7.91016 0 13.1904 -5.26953 13.1904 -13.1797v-108.91c0 -7.91016 -5.28027 -13.1904 -13.1904 -13.1904h-281.72v-149.82h253.54c7.91016 0 13.1904 -5.26953 13.1904 -13.1797v-108.91c0 -7.91016 -5.28027 -13.1904 -13.1904 -13.1904 h-253.54v-266.45c0 -7.91016 -5.28027 -13.1904 -13.1904 -13.1904h-129.54c-7.91016 0 -13.1904 5.28027 -13.1904 13.1904v673.63c0 7.91016 5.28027 13.1904 13.1904 13.1904z" class='title'/><path transform="translate(10255,0) rotate(180) scale(-1, 1)" d="M226.54 135.27h275.359c7.91016 0 13.1904 -5.26953 13.1904 -13.1797v-108.91c0 -7.91016 -5.28027 -13.1904 -13.1904 -13.1904h-454.18c-7.91016 0 -13.1797 5.28027 -13.1797 13.1904v96.1797c0 6.91016 1.82031 12.1797 5.27051 17.46l277.46 437.91h-258 c-7.91016 0 -13.1904 5.26953 -13.1904 13.1797v108.91c0 7.91016 5.28027 13.1904 13.1904 13.1904h436.82c7.91016 0 13.1797 -5.28027 13.1797 -13.1904v-96.1797c0 -6.91016 -1.82031 -12.1797 -5.27051 -17.46z" class='title'/><path transform="translate(10805,0) rotate(180) scale(-1, 1)" d="M352.45 713l14.0898 -0.00292969c64.7197 0 128.72 -17.4502 156.09 -32.0898c7.26953 -3.62988 12.5498 -8.26953 12.5498 -20.6299v-106.28c0 -7.91016 -7.91016 -13 -15.6406 -9.54004c-48.2695 20.9102 -82 33.2705 -136.82 33.2705h-4.71973 c-98.6396 0 -166.64 -67.8203 -166.64 -183.09v-89.2803c0 -115.27 68 -183.09 166.64 -183.09h4.71973c57.2803 0 95.1006 14.8203 136.82 33.2705c7.73047 3.45996 15.6406 -1.62988 15.6406 -9.54004v-107.09c0 -9.91016 -3.63965 -15.3701 -12.5498 -20.6396 c-25.7197 -14.6396 -93.8096 -31.2695 -156.09 -31.2695h-14.0898c-155.82 0 -301.09 110.36 -301.09 318.091v89.8203c0 207.72 145.27 318.09 301.09 318.09z" class='title'/><path transform="translate(11370,0) rotate(180) scale(-1, 1)" d="M332.45 713h15c146.82 0 281.101 -99.0898 281.101 -297v-132c0 -197.91 -134.28 -297 -281.101 -297h-15c-146.82 0 -281.09 99.0898 -281.09 297v132c0 197.91 134.27 297 281.09 297zM344 577.72h-8.08984c-78.1797 0 -124.55 -53.2695 -124.55 -148.09v-159.28 c0 -95.6299 46.3701 -148.09 124.55 -148.09h8.08984c78.1797 0 124.54 52.46 124.54 148.09v159.28c0 94.8203 -46.3604 148.09 -124.54 148.09z" class='title'/></g></svg>