<svg width="37" height="29" viewBox="0 0 37 29" fill="none" xmlns="http://www.w3.org/2000/svg">
<path fill-rule="evenodd" clip-rule="evenodd" d="M4.525 2.3165L18.07 12.4753C18.1941 12.5683 18.3449 12.6186 18.5 12.6186C18.6551 12.6186 18.806 12.5683 18.93 12.4753L32.475 2.3165H4.525ZM34.2667 3.66025L20.22 14.1953C19.7238 14.5674 19.1203 14.7686 18.5 14.7686C17.8797 14.7686 17.2762 14.5674 16.78 14.1953L2.73334 3.66025V26.6832H34.2667V3.66025ZM2.375 0.166504H34.625C35.1002 0.166504 35.5559 0.355269 35.8919 0.691271C36.2279 1.02727 36.4167 1.48299 36.4167 1.95817V27.0415C36.4167 27.5167 36.2279 27.9724 35.8919 28.3084C35.5559 28.6444 35.1002 28.8332 34.625 28.8332H2.375C1.89982 28.8332 1.44411 28.6444 1.1081 28.3084C0.7721 27.9724 0.583336 27.5167 0.583336 27.0415V1.95817C0.583336 1.48299 0.7721 1.02727 1.1081 0.691271C1.44411 0.355269 1.89982 0.166504 2.375 0.166504Z" fill="#29333F"/>
</svg>
