<svg width="34" height="34" viewBox="0 0 34 34" fill="none" xmlns="http://www.w3.org/2000/svg">
<path fill-rule="evenodd" clip-rule="evenodd" d="M18 16.1718L24.485 22.6568L23.0717 24.0718L16 17.0002V7.00016H18V16.1718ZM17 33.6668C7.79504 33.6668 0.333374 26.2052 0.333374 17.0002C0.333374 7.79516 7.79504 0.333496 17 0.333496C26.205 0.333496 33.6667 7.79516 33.6667 17.0002C33.6667 26.2052 26.205 33.6668 17 33.6668ZM17 31.6668C20.8899 31.6668 24.6204 30.1216 27.3709 27.3711C30.1215 24.6205 31.6667 20.89 31.6667 17.0002C31.6667 13.1103 30.1215 9.3798 27.3709 6.62926C24.6204 3.87873 20.8899 2.3335 17 2.3335C13.1102 2.3335 9.37967 3.87873 6.62914 6.62926C3.87861 9.3798 2.33337 13.1103 2.33337 17.0002C2.33337 20.89 3.87861 24.6205 6.62914 27.3711C9.37967 30.1216 13.1102 31.6668 17 31.6668Z" fill="#29333F"/>
</svg>
