<svg width="37" height="34" viewBox="0 0 37 34" fill="none" xmlns="http://www.w3.org/2000/svg">
<path d="M1.03125 11.125C1.03125 1.71875 10.4375 1.71875 18.5 1.71875C26.5625 1.71875 35.9688 1.71875 35.9688 11.125C35.9688 21.875 26.5625 9.78125 26.5625 9.78125H10.4375C10.4375 9.78125 1.03125 21.875 1.03125 11.125ZM11.7812 13.8125C11.7812 13.8125 5.0625 20.5312 5.0625 32.625H31.9375C31.9375 20.5312 25.2188 13.8125 25.2188 13.8125H11.7812Z" stroke="#29333F" stroke-width="2" stroke-linecap="round" stroke-linejoin="round"/>
<path d="M18.5 28.5938C21.4685 28.5938 23.875 26.1873 23.875 23.2188C23.875 20.2502 21.4685 17.8438 18.5 17.8438C15.5315 17.8438 13.125 20.2502 13.125 23.2188C13.125 26.1873 15.5315 28.5938 18.5 28.5938Z" stroke="#29333F" stroke-width="2" stroke-linecap="round" stroke-linejoin="round"/>
</svg>
