<svg width="37" height="41" viewBox="0 0 37 41" fill="none" xmlns="http://www.w3.org/2000/svg">
<path d="M34.4375 4.17188H28.8594V1.78125C28.8594 1.56991 28.7754 1.36722 28.626 1.21777C28.4765 1.06833 28.2738 0.984375 28.0625 0.984375C27.8512 0.984375 27.6485 1.06833 27.499 1.21777C27.3496 1.36722 27.2656 1.56991 27.2656 1.78125V4.17188H9.73438V1.78125C9.73438 1.56991 9.65042 1.36722 9.50098 1.21777C9.35153 1.06833 9.14884 0.984375 8.9375 0.984375C8.72616 0.984375 8.52347 1.06833 8.37402 1.21777C8.22458 1.36722 8.14062 1.56991 8.14062 1.78125V4.17188H2.5625C1.92847 4.17188 1.3204 4.42374 0.872073 4.87207C0.423743 5.3204 0.171875 5.92847 0.171875 6.5625V38.4375C0.171875 39.0715 0.423743 39.6796 0.872073 40.1279C1.3204 40.5763 1.92847 40.8281 2.5625 40.8281H34.4375C35.0715 40.8281 35.6796 40.5763 36.1279 40.1279C36.5763 39.6796 36.8281 39.0715 36.8281 38.4375V6.5625C36.8281 5.92847 36.5763 5.3204 36.1279 4.87207C35.6796 4.42374 35.0715 4.17188 34.4375 4.17188ZM2.5625 5.76562H8.14062V8.15625C8.14062 8.36759 8.22458 8.57028 8.37402 8.71973C8.52347 8.86917 8.72616 8.95312 8.9375 8.95312C9.14884 8.95312 9.35153 8.86917 9.50098 8.71973C9.65042 8.57028 9.73438 8.36759 9.73438 8.15625V5.76562H27.2656V8.15625C27.2656 8.36759 27.3496 8.57028 27.499 8.71973C27.6485 8.86917 27.8512 8.95312 28.0625 8.95312C28.2738 8.95312 28.4765 8.86917 28.626 8.71973C28.7754 8.57028 28.8594 8.36759 28.8594 8.15625V5.76562H34.4375C34.6488 5.76562 34.8515 5.84958 35.001 5.99902C35.1504 6.14847 35.2344 6.35116 35.2344 6.5625V13.7344H1.76562V6.5625C1.76562 6.35116 1.84958 6.14847 1.99902 5.99902C2.14847 5.84958 2.35116 5.76562 2.5625 5.76562ZM34.4375 39.2344H2.5625C2.35116 39.2344 2.14847 39.1504 1.99902 39.001C1.84958 38.8515 1.76562 38.6488 1.76562 38.4375V15.3281H35.2344V38.4375C35.2344 38.6488 35.1504 38.8515 35.001 39.001C34.8515 39.1504 34.6488 39.2344 34.4375 39.2344ZM14.5156 20.9062V33.6562C14.5156 33.8676 14.4317 34.0703 14.2822 34.2197C14.1328 34.3692 13.9301 34.4531 13.7188 34.4531C13.5074 34.4531 13.3047 34.3692 13.1553 34.2197C13.0058 34.0703 12.9219 33.8676 12.9219 33.6562V22.1952L10.8879 23.2132C10.6987 23.3078 10.4797 23.3233 10.2791 23.2565C10.0785 23.1896 9.91262 23.0458 9.81805 22.8566C9.72347 22.6674 9.70791 22.4485 9.77478 22.2478C9.84166 22.0472 9.9855 21.8814 10.1746 21.7868L13.3621 20.193C13.4837 20.1322 13.6188 20.1035 13.7545 20.1096C13.8903 20.1157 14.0222 20.1564 14.1378 20.2279C14.2534 20.2994 14.3488 20.3992 14.4149 20.5179C14.4811 20.6367 14.5157 20.7703 14.5156 20.9062ZM26.4688 26.4844L21.6875 32.8594H26.4688C26.6801 32.8594 26.8828 32.9433 27.0322 33.0928C27.1817 33.2422 27.2656 33.4449 27.2656 33.6562C27.2656 33.8676 27.1817 34.0703 27.0322 34.2197C26.8828 34.3692 26.6801 34.4531 26.4688 34.4531H20.0938C19.9458 34.4531 19.8007 34.4119 19.6748 34.3341C19.5489 34.2563 19.4472 34.145 19.381 34.0126C19.3148 33.8803 19.2868 33.7321 19.3001 33.5847C19.3134 33.4373 19.3675 33.2965 19.4563 33.1781L25.1898 25.5341C25.5044 25.12 25.6738 24.6138 25.6719 24.0938C25.6725 23.567 25.4991 23.0548 25.1786 22.6367C24.8582 22.2187 24.4086 21.9182 23.8998 21.7819C23.391 21.6456 22.8514 21.6812 22.3649 21.8831C21.8784 22.085 21.4722 22.4419 21.2094 22.8984C21.0991 23.0719 20.9261 23.196 20.7265 23.2449C20.5268 23.2938 20.316 23.2637 20.1381 23.1608C19.9601 23.058 19.8288 22.8904 19.7716 22.693C19.7143 22.4956 19.7355 22.2837 19.8308 22.1016C20.2694 21.342 20.9463 20.7484 21.7566 20.4128C22.5669 20.0772 23.4653 20.0183 24.3125 20.2453C25.1597 20.4723 25.9083 20.9725 26.4422 21.6683C26.9762 22.3641 27.2656 23.2167 27.2656 24.0938C27.2685 24.9563 26.9886 25.7961 26.4688 26.4844Z" fill="#29333F"/>
</svg>
